<?xml version="1.0" standalone="no"?>
<!DOCTYPE svg PUBLIC "-//W3C//DTD SVG 20010904//EN"
 "http://www.w3.org/TR/2001/REC-SVG-20010904/DTD/svg10.dtd">
<svg version="1.0" xmlns="http://www.w3.org/2000/svg"
 width="225.000000pt" height="225.000000pt" viewBox="0 0 225.000000 225.000000"
 preserveAspectRatio="xMidYMid meet">

<g transform="translate(0.000000,225.000000) scale(0.100000,-0.100000)"
fill="#000000" stroke="none">
<path d="M0 1125 l0 -1125 1125 0 1125 0 0 1125 0 1125 -1125 0 -1125 0 0
-1125z m369 56 c44 -24 37 -155 -10 -178 -50 -26 -169 -13 -191 21 -10 14 -10
128 0 143 19 30 152 40 201 14z m1695 3 c19 -7 28 -33 28 -87 2 -85 -25 -107
-126 -107 -91 0 -123 37 -111 125 7 54 16 65 56 76 34 8 124 4 153 -7z m-1264
-199 l0 -105 79 0 c87 0 91 -3 91 -68 0 -79 -3 -82 -91 -82 l-79 0 0 -184 c0
-137 3 -186 13 -194 7 -6 37 -12 67 -14 54 -3 55 -4 64 -39 5 -20 6 -56 2 -82
l-7 -45 -83 -7 c-144 -12 -217 12 -252 83 -17 32 -19 67 -22 260 l-3 222 -54
0 -53 0 -4 41 c-2 23 -2 56 0 75 4 34 4 34 58 34 l54 0 0 53 c0 125 29 156
148 157 l72 0 0 -105z m-415 -450 l0 -360 -107 -3 -108 -3 0 366 0 366 108 -3
107 -3 0 -360z m1695 0 l0 -366 -107 3 -108 3 -3 350 c-1 192 0 356 3 362 3 9
34 13 110 13 l105 0 0 -365z m-863 262 c83 -53 153 -104 160 -118 16 -31 16
-242 0 -289 -10 -29 -33 -48 -157 -127 -79 -51 -150 -93 -157 -93 -10 0 -13
31 -13 125 0 143 -2 139 94 196 31 18 56 36 56 39 0 3 -26 21 -57 40 -95 57
-93 54 -93 188 0 103 4 132 16 132 2 0 70 -42 151 -93z m543 -30 c0 -83 -4
-128 -12 -139 -7 -9 -41 -34 -76 -56 l-63 -41 73 -48 73 -48 3 -132 c2 -96 -1
-133 -9 -133 -12 0 -271 161 -301 188 -16 13 -18 35 -18 163 0 148 0 149 28
178 25 27 277 190 295 191 4 0 7 -55 7 -123z"/>
</g>
</svg>
